<!DOCTYPE svg PUBLIC "-//W3C//DTD SVG 20010904//EN" "http://www.w3.org/TR/2001/REC-SVG-20010904/DTD/svg10.dtd">
<svg version="1.0" xmlns="http://www.w3.org/2000/svg" width="1080px" height="1177px" viewBox="0 0 10800 11770" preserveAspectRatio="xMidYMid meet">
<g id="layer1" fill="#000000" stroke="none">
 <path d="M755 11760 c-3 -5 -19 -10 -35 -10 -16 0 -32 -4 -35 -10 -3 -5 -19 -10 -35 -10 -16 0 -31 -4 -34 -9 -3 -4 -38 -25 -78 -46 -145 -74 -349 -269 -413 -392 -11 -21 -29 -54 -40 -73 -12 -19 -27 -55 -34 -80 -7 -25 -17 -55 -22 -68 -5 -13 -9 -34 -9 -47 0 -13 -4 -27 -10 -30 -14 -9 -14 -10191 0 -10200 6 -3 10 -17 10 -30 0 -13 4 -34 9 -47 5 -13 15 -43 22 -68 7 -25 22 -61 34 -80 11 -19 29 -52 40 -73 64 -123 268 -318 413 -392 40 -21 75 -42 78 -46 3 -5 18 -9 34 -9 16 0 32 -4 35 -10 3 -5 19 -10 35 -10 16 0 32 -4 35 -10 9 -14 5551 -14 5560 0 3 6 19 10 35 10 16 0 32 4 35 10 3 5 15 10 25 10 16 0 81 31 173 82 12 7 61 44 110 82 110 88 219 219 276 333 47 95 49 100 75 183 10 30 23 66 29 79 17 35 17 10137 0 10172 -6 13 -19 49 -29 79 -26 83 -28 88 -75 183 -57 114 -166 245 -276 333 -49 38 -98 75 -110 82 -92 51 -157 82 -173 82 -10 0 -22 5 -25 10 -3 6 -19 10 -35 10 -16 0 -32 5 -35 10 -4 7 -942 10 -2780 10 -1838 0 -2776 -3 -2780 -10z m5302 -770 c73 -9 137 -40 147 -70 3 -8 11 -26 19 -40 34 -59 37 -116 37 -720 l0 -600 -2725 0 -2725 0 0 600 c0 400 4 617 11 652 24 113 84 172 179 177 30 1 57 4 59 7 9 9 4927 3 4998 -6z m203 -5320 l0 -3060 -2725 0 -2725 0 -2 3060 -3 3060 2728 0 2727 0 0 -3060z m0 -4260 c0 -233 -4 -387 -11 -417 -18 -78 -48 -129 -93 -160 l-41 -28 -2580 0 -2580 0 -43 29 c-45 31 -80 80 -89 124 -3 15 -8 206 -12 425 l-6 397 2728 0 2727 0 0 -370z"/>
 <path d="M3415 10658 c-90 -32 -171 -90 -232 -168 -23 -30 -42 -60 -43 -66 0 -6 -7 -25 -16 -42 -21 -44 -29 -159 -15 -230 6 -33 25 -84 42 -115 36 -68 133 -160 197 -187 26 -12 55 -25 64 -30 10 -6 62 -10 115 -10 135 0 209 29 302 120 185 180 188 438 7 612 -53 51 -104 83 -189 117 -34 14 -191 13 -232 -1z"/>
 <path d="M8865 8899 c-3 -8 -4 -129 -3 -269 l3 -255 90 -12 c132 -17 187 -34 304 -95 555 -288 967 -1156 1041 -2193 21 -290 2 -755 -39 -985 -111 -612 -268 -1029 -524 -1390 -81 -113 -283 -315 -375 -375 -119 -76 -285 -144 -356 -145 -17 -1 -56 -7 -86 -14 l-55 -13 0 -259 0 -259 122 1 c121 0 157 7 304 55 305 99 635 371 884 729 55 78 164 262 213 357 198 387 357 933 394 1358 13 142 13 1128 0 1265 -45 500 -248 1134 -491 1535 -300 494 -680 826 -1066 930 -33 9 -73 21 -90 26 -16 6 -83 13 -147 16 -96 5 -119 3 -123 -8z"/>
 <path d="M7874 7987 c-2 -7 -3 -98 -2 -202 l3 -190 90 -7 c86 -7 218 -31 260 -48 11 -4 52 -19 90 -34 361 -139 712 -525 879 -966 16 -41 32 -84 36 -95 26 -65 52 -165 73 -285 7 -36 15 -69 19 -75 6 -10 32 -319 32 -390 0 -79 -26 -380 -34 -390 -4 -5 -11 -40 -15 -77 -3 -37 -11 -70 -16 -73 -5 -4 -9 -16 -9 -29 0 -21 -31 -135 -50 -181 -4 -11 -27 -69 -50 -130 -24 -60 -46 -114 -50 -120 -4 -5 -24 -41 -45 -80 -102 -193 -248 -376 -401 -504 -85 -71 -280 -201 -302 -201 -4 0 -18 -6 -32 -13 -22 -11 -88 -36 -185 -68 -16 -5 -82 -15 -145 -20 -63 -6 -122 -14 -130 -19 -13 -6 -15 -39 -15 -201 l0 -194 98 -3 c200 -6 443 56 682 175 202 99 348 205 521 378 184 184 312 365 437 620 32 66 63 128 68 137 5 10 9 23 9 30 0 7 6 25 14 40 8 15 17 41 21 59 4 19 11 40 16 49 8 15 35 109 59 205 13 56 36 193 50 300 5 39 9 178 9 310 0 132 -4 272 -9 310 -14 107 -37 244 -50 300 -24 96 -51 190 -59 205 -5 9 -12 30 -16 49 -4 18 -13 44 -21 59 -8 15 -14 32 -14 39 0 6 -6 24 -14 40 -8 15 -36 73 -63 128 -114 238 -252 433 -443 626 -236 239 -532 414 -840 496 -178 47 -444 70 -456 40z"/>
 </g>

</svg>