<?xml version="1.0" encoding="utf-8"?>
<!-- Generator: Adobe Illustrator 21.1.0, SVG Export Plug-In . SVG Version: 6.00 Build 0)  -->
<svg version="1.1" id="Слой_1" xmlns="http://www.w3.org/2000/svg" xmlns:xlink="http://www.w3.org/1999/xlink" x="0px" y="0px"
	 viewBox="0 0 850.4 850.4" style="enable-background:new 0 0 850.4 850.4;" xml:space="preserve">
<style type="text/css">
	.st0{fill:#CCCCCC;stroke:#666666;stroke-miterlimit:10;}
	.st1{fill:#666666;}
</style>
<g>
	<circle class="st0" cx="437.4" cy="425.2" r="413"/>
</g>
<g id="layer1">
	<path class="st1" d="M272.9,596.1L260,583.6V414.8V246l12.5-12.5L285,221h168.8h168.8l12.5,12.5l12.5,12.5v168.4v167.9l-10.3,12.1
		l-10.3,12.1l-171,1.3L285.4,609L272.9,596.1z M595.9,475.1c0-76.7-0.4-81.8-7.8-81.8c-6.9,0-8.2,3.9-8.2,25.8
		c-0.4,48.2-28.9,88.3-77.9,111.1c-19.8,9-28,10.3-54.3,8.6c-36.2-2.6-59.9-13.3-84-37.9c-22.8-23.7-31.9-44.4-34-78.4
		c-1.7-25.4-3-29.3-9.9-29.3c-7.8,0-8.2,4.3-8.2,81.8v81.8h142.1h142.1V475.1z M491.2,472.1c40.9-19.4,43.5-85.7,4.7-114.5
		c-17.2-12.9-56.8-14.6-76.7-3.9c-22.4,12.1-34.5,32.3-34.5,57.7C384.9,467.8,437,497.5,491.2,472.1z M595.9,302.8v-30.1h-32.3
		h-32.3v30.1V333h32.3h32.3V302.8z"/>
</g>
</svg>
