<!DOCTYPE svg PUBLIC "-//W3C//DTD SVG 20010904//EN" "http://www.w3.org/TR/2001/REC-SVG-20010904/DTD/svg10.dtd">
<svg version="1.0" xmlns="http://www.w3.org/2000/svg" width="371px" height="512px" viewBox="0 0 3710 5120" preserveAspectRatio="xMidYMid meet">
<g id="layer1" fill="#cccccc" stroke="none">
 <path d="M1768 5105 c-50 -28 -360 -403 -621 -753 -592 -794 -966 -1502 -1104 -2090 -26 -113 -27 -126 -27 -412 0 -249 2 -308 18 -380 146 -679 666 -1231 1337 -1419 240 -67 748 -67 988 0 602 169 1089 633 1282 1222 54 163 61 219 66 522 6 292 -3 399 -48 570 -139 541 -514 1232 -1079 1990 -263 354 -569 724 -621 750 -36 19 -155 19 -191 0z m287 -2354 c353 -73 638 -361 711 -720 22 -114 15 -314 -16 -421 -173 -601 -875 -862 -1391 -518 -359 240 -505 701 -348 1098 112 281 368 499 659 561 114 24 270 24 385 0z"/>
 </g>

</svg>