<!DOCTYPE svg PUBLIC "-//W3C//DTD SVG 20010904//EN" "http://www.w3.org/TR/2001/REC-SVG-20010904/DTD/svg10.dtd">
<svg version="1.0" xmlns="http://www.w3.org/2000/svg" width="313px" height="387px" viewBox="0 0 3130 3870" preserveAspectRatio="xMidYMid meet">
<g id="layer1" fill="#cccccc" stroke="none">
 <path d="M1140 3860 c-157 -4 -316 -12 -355 -18 -38 -7 -108 -16 -155 -22 -96 -13 -207 -36 -232 -50 -10 -6 -29 -10 -43 -10 -14 0 -33 -4 -43 -9 -9 -5 -51 -25 -92 -44 -101 -46 -150 -81 -182 -128 -36 -54 -40 -92 -36 -305 4 -221 16 -265 97 -359 63 -72 183 -175 239 -206 20 -11 51 -29 67 -39 34 -22 171 -90 181 -90 8 0 135 -49 156 -61 10 -5 27 -9 37 -9 11 0 22 -4 25 -9 3 -5 20 -11 38 -14 60 -9 193 -44 213 -55 32 -17 73 -64 89 -104 29 -69 22 -100 -47 -206 -57 -86 -97 -172 -138 -297 -8 -22 -20 -44 -28 -49 -112 -70 -181 -235 -181 -430 0 -76 3 -98 19 -117 19 -24 19 -26 -1 -99 -17 -61 -21 -108 -22 -245 -1 -250 26 -358 147 -580 12 -22 57 -76 100 -121 83 -88 174 -144 264 -166 63 -15 331 -22 358 -9 11 5 36 12 55 15 55 10 121 46 167 92 l42 42 98 4 c79 2 107 8 145 27 48 24 120 91 144 132 81 142 111 257 120 461 6 139 -8 344 -26 378 -8 15 -6 28 7 52 15 27 18 57 18 163 0 184 -16 225 -142 374 -35 41 -63 82 -63 91 0 39 -73 193 -141 297 -25 39 -53 94 -62 121 -16 48 -16 53 2 94 13 30 30 50 58 65 35 20 161 55 251 70 18 3 35 9 38 14 3 5 15 9 28 9 12 0 26 4 32 8 5 4 34 16 64 26 97 32 249 105 358 173 95 59 282 248 282 285 0 8 4 18 9 23 31 34 45 402 17 468 -29 72 -159 150 -341 206 -38 12 -78 26 -87 32 -10 5 -29 9 -42 9 -14 0 -28 5 -31 10 -3 6 -19 10 -35 10 -16 0 -39 4 -52 9 -30 12 -153 37 -253 51 -44 6 -102 16 -130 21 -47 9 -563 30 -670 27 -27 -1 -178 -4 -335 -8z"/>
 </g>

</svg>