<!DOCTYPE svg PUBLIC "-//W3C//DTD SVG 20010904//EN" "http://www.w3.org/TR/2001/REC-SVG-20010904/DTD/svg10.dtd">
<svg version="1.0" xmlns="http://www.w3.org/2000/svg" width="396px" height="555px" viewBox="0 0 3960 5550" preserveAspectRatio="xMidYMid meet">
<g id="layer1" fill="#cccccc" stroke="none">
 <path d="M2649 5546 c-2 -2 -49 -9 -104 -15 -143 -16 -212 -29 -259 -50 -22 -10 -54 -21 -71 -25 -16 -4 -43 -13 -60 -20 -16 -8 -57 -26 -90 -41 -33 -15 -69 -32 -80 -38 -11 -6 -45 -23 -75 -39 -30 -16 -76 -45 -102 -64 -26 -19 -52 -34 -56 -34 -5 0 -19 -11 -32 -25 -13 -14 -28 -25 -33 -25 -5 0 -19 -9 -31 -19 -11 -11 -61 -54 -111 -96 -312 -266 -575 -606 -872 -1123 -31 -53 -53 -95 -152 -292 -37 -73 -104 -215 -121 -255 -4 -11 -22 -51 -39 -88 -17 -37 -31 -70 -31 -73 0 -3 -7 -22 -16 -42 -9 -21 -23 -51 -30 -69 -8 -17 -14 -38 -14 -46 0 -9 -4 -18 -9 -22 -5 -3 -13 -20 -17 -37 -3 -18 -10 -39 -15 -48 -4 -8 -22 -60 -39 -115 -18 -55 -38 -118 -45 -140 -18 -52 -78 -297 -99 -405 -40 -206 -53 -560 -31 -795 15 -152 65 -377 99 -440 9 -16 16 -35 16 -42 0 -10 14 -42 70 -153 28 -58 60 -111 86 -145 13 -18 24 -37 24 -43 0 -6 6 -15 13 -19 7 -4 45 -46 85 -93 85 -101 109 -124 230 -219 126 -98 120 -95 452 -253 161 -77 153 -74 235 -88 77 -12 173 -2 216 22 79 44 168 151 225 269 43 87 64 138 64 150 0 6 6 25 14 42 13 29 30 81 110 347 42 138 65 290 60 395 -5 108 -12 154 -29 178 -8 12 -15 28 -15 36 0 22 -68 112 -118 156 -53 47 -104 78 -222 135 -47 23 -93 46 -103 51 -9 5 -43 19 -75 30 -87 32 -163 70 -204 101 -110 85 -153 249 -124 468 13 95 76 332 106 395 5 11 20 49 33 85 50 134 239 519 304 618 31 47 43 67 50 82 3 8 19 31 35 51 15 20 28 40 28 44 0 17 140 183 202 238 88 79 141 114 192 128 23 6 46 15 53 21 13 11 126 13 168 2 30 -7 140 -62 190 -95 49 -31 306 -156 358 -173 87 -29 172 -31 267 -6 47 13 97 31 112 41 14 11 30 19 34 19 8 0 136 110 174 150 82 86 114 128 258 340 36 52 70 102 77 110 24 28 127 214 147 264 23 57 47 171 47 230 2 133 -77 239 -239 319 -19 10 -42 22 -50 27 -8 5 -53 27 -100 50 -47 23 -98 49 -115 58 -16 10 -50 26 -75 36 -25 10 -54 22 -65 27 -64 28 -193 62 -284 75 -99 14 -374 28 -382 20z"/>
 </g>

</svg>