<!DOCTYPE svg PUBLIC "-//W3C//DTD SVG 20010904//EN" "http://www.w3.org/TR/2001/REC-SVG-20010904/DTD/svg10.dtd">
<svg version="1.0" xmlns="http://www.w3.org/2000/svg" width="135px" height="210px" viewBox="0 0 1350 2100" preserveAspectRatio="xMidYMid meet">
<g id="layer1" fill="#cccccc" stroke="none">
 <path d="M803 2084 c-74 -16 -107 -32 -188 -89 -206 -147 -410 -471 -540 -860 -70 -209 -92 -451 -60 -650 32 -194 146 -350 326 -439 120 -61 165 -62 219 -8 40 40 67 104 105 245 63 235 35 311 -147 403 -62 31 -95 54 -109 77 -82 130 151 706 307 757 46 16 64 10 161 -48 108 -65 140 -71 207 -38 59 29 103 79 181 202 90 144 109 262 51 323 -38 40 -180 112 -250 127 -77 17 -183 16 -263 -2z"/>
 </g>

</svg>