<!DOCTYPE svg PUBLIC "-//W3C//DTD SVG 20010904//EN" "http://www.w3.org/TR/2001/REC-SVG-20010904/DTD/svg10.dtd">
<svg version="1.0" xmlns="http://www.w3.org/2000/svg" width="1073px" height="1073px" viewBox="0 0 10730 10730" preserveAspectRatio="xMidYMid meet">
<g id="layer1" fill="#666666" stroke="none">
 <path d="M2875 10136 c-11 -8 -14 -16 -8 -19 6 -4 18 0 28 7 11 8 14 16 8 19 -6 4 -18 0 -28 -7z"/>
 <path d="M7825 10141 c-3 -6 3 -15 14 -21 12 -6 22 -6 26 -1 3 6 -3 15 -14 21 -12 6 -22 6 -26 1z"/>
 <path d="M3049 8322 c-18 -13 -19 -95 -19 -2956 0 -2503 2 -2945 14 -2955 10 -9 475 -11 1862 -8 l1849 3 130 22 c405 70 660 188 904 418 295 277 441 620 441 1036 0 295 -73 540 -231 775 -71 105 -225 257 -330 326 -94 62 -234 134 -316 163 -29 10 -53 22 -53 26 0 4 26 15 58 23 417 115 734 322 916 599 164 249 223 456 233 806 6 237 -17 404 -87 610 -61 181 -195 399 -340 552 -221 235 -459 372 -755 437 -212 46 -253 52 -645 97 -289 33 -378 34 -1984 37 -1327 2 -1632 0 -1647 -11z m3106 -1300 c278 -59 412 -169 491 -402 28 -84 26 -272 -4 -360 -63 -185 -196 -296 -432 -358 l-95 -25 -611 -4 c-584 -4 -612 -3 -615 14 -2 10 -3 276 -1 591 l2 573 583 -3 c549 -4 588 -5 682 -26z m-340 -2312 c339 -24 497 -117 577 -342 20 -55 23 -82 23 -213 -1 -147 -1 -151 -34 -228 -69 -162 -191 -249 -411 -293 -71 -15 -163 -18 -574 -22 -279 -2 -492 0 -497 5 -13 13 -12 1085 1 1093 17 11 765 11 915 0z"/>
 </g>
<g id="layer2" fill="#9f9f9f" stroke="none">
 <path d="M4895 10718 c-742 -45 -1589 -315 -2270 -723 -1129 -675 -1971 -1724 -2373 -2956 -136 -415 -217 -829 -242 -1239 -13 -224 -13 -646 0 -870 73 -1202 617 -2406 1495 -3309 770 -791 1718 -1310 2795 -1530 316 -64 630 -91 1065 -91 535 0 857 36 1303 146 1915 471 3445 2001 3916 3916 110 446 146 768 146 1303 0 431 -24 717 -86 1035 -160 812 -489 1546 -989 2210 -739 978 -1808 1684 -2988 1975 -322 79 -558 116 -867 134 -200 13 -697 12 -905 -1z m1545 -2418 c115 -10 246 -24 500 -55 221 -26 428 -69 580 -122 264 -91 529 -304 701 -563 142 -213 212 -397 254 -665 20 -131 16 -426 -8 -565 -56 -327 -223 -619 -461 -804 -170 -132 -399 -242 -647 -310 -100 -28 -101 -56 -4 -91 170 -61 364 -183 486 -304 178 -179 290 -394 345 -664 45 -221 26 -536 -44 -738 -132 -377 -405 -672 -773 -834 -143 -63 -279 -101 -484 -137 l-130 -22 -1852 -3 -1853 -4 0 2945 c0 1953 3 2945 10 2948 26 8 3276 -3 3380 -12z"/>
 <path d="M4882 7057 c-17 -20 -18 -1173 -1 -1194 11 -12 95 -14 623 -10 l611 4 95 25 c128 34 213 74 288 138 73 62 126 139 161 230 21 56 24 83 25 190 1 97 -3 137 -18 180 -33 96 -74 167 -135 232 -96 103 -192 151 -376 190 -94 21 -133 22 -681 25 -486 4 -582 2 -592 -10z"/>
 <path d="M4888 4721 c-18 -15 -19 -35 -19 -561 1 -509 2 -546 18 -558 15 -11 114 -13 508 -9 412 3 503 6 575 21 222 45 359 143 431 312 33 78 33 81 34 229 0 131 -3 158 -23 213 -46 128 -134 230 -245 285 -147 72 -317 88 -876 85 -331 -1 -386 -4 -403 -17z"/>
 </g>

</svg>