<?xml version="1.0" encoding="utf-8"?>
<!-- Generator: Adobe Illustrator 21.1.0, SVG Export Plug-In . SVG Version: 6.00 Build 0)  -->
<svg version="1.1" id="Слой_1" xmlns="http://www.w3.org/2000/svg" xmlns:xlink="http://www.w3.org/1999/xlink" x="0px" y="0px"
	 viewBox="0 0 1073 1073" style="enable-background:new 0 0 1073 1073;" xml:space="preserve">
<style type="text/css">
	.st0{fill:#666666;}
	.st1{fill:#FFFFFF;stroke:#666666;stroke-miterlimit:10;}
	.st2{fill:#FFFFFF;stroke:#FFFFFF;stroke-miterlimit:10;}
</style>
<g id="layer1">
	<path class="st0" d="M287.5,1013.6c-1.1-0.8-1.4-1.6-0.8-1.9c0.6-0.4,1.8,0,2.8,0.7c1.1,0.8,1.4,1.6,0.8,1.9
		C289.7,1014.7,288.5,1014.3,287.5,1013.6z"/>
	<path class="st0" d="M782.5,1014.1c-0.3-0.6,0.3-1.5,1.4-2.1c1.2-0.6,2.2-0.6,2.6-0.1c0.3,0.6-0.3,1.5-1.4,2.1
		C783.9,1014.6,782.9,1014.6,782.5,1014.1z"/>
	<path class="st0" d="M304.9,832.2c-1.8-1.3-1.9-9.5-1.9-295.6c0-250.3,0.2-294.5,1.4-295.5c1-0.9,47.5-1.1,186.2-0.8l184.9,0.3
		l13,2.2c40.5,7,66,18.8,90.4,41.8c29.5,27.7,44.1,62,44.1,103.6c0,29.5-7.3,54-23.1,77.5c-7.1,10.5-22.5,25.7-33,32.6
		c-9.4,6.2-23.4,13.4-31.6,16.3c-2.9,1-5.3,2.2-5.3,2.6c0,0.4,2.6,1.5,5.8,2.3c41.7,11.5,73.4,32.2,91.6,59.9
		c16.4,24.9,22.3,45.6,23.3,80.6c0.6,23.7-1.7,40.4-8.7,61c-6.1,18.1-19.5,39.9-34,55.2c-22.1,23.5-45.9,37.2-75.5,43.7
		c-21.2,4.6-25.3,5.2-64.5,9.7c-28.9,3.3-37.8,3.4-198.4,3.7C336.9,833.5,306.4,833.3,304.9,832.2z M615.5,702.2
		c27.8-5.9,41.2-16.9,49.1-40.2c2.8-8.4,2.6-27.2-0.4-36c-6.3-18.5-19.6-29.6-43.2-35.8l-9.5-2.5l-61.1-0.4
		c-58.4-0.4-61.2-0.3-61.5,1.4c-0.2,1-0.3,27.6-0.1,59.1l0.2,57.3l58.3-0.3C602.2,704.4,606.1,704.3,615.5,702.2z M581.5,471
		c33.9-2.4,49.7-11.7,57.7-34.2c2-5.5,2.3-8.2,2.3-21.3c-0.1-14.7-0.1-15.1-3.4-22.8c-6.9-16.2-19.1-24.9-41.1-29.3
		c-7.1-1.5-16.3-1.8-57.4-2.2c-27.9-0.2-49.2,0-49.7,0.5c-1.3,1.3-1.2,108.5,0.1,109.3C491.7,472.1,566.5,472.1,581.5,471z"/>
</g>
<g id="layer2">
	<path class="st1" d="M489.5,1071.8c-74.2-4.5-158.9-31.5-227-72.3C149.6,932,65.4,827.1,25.2,703.9C11.6,662.4,3.5,621,1,580
		c-1.3-22.4-1.3-64.6,0-87c7.3-120.2,61.7-240.6,149.5-330.9c77-79.1,171.8-131,279.5-153C461.6,2.7,493,0,536.5,0
		c53.5,0,85.7,3.6,130.3,14.6c191.5,47.1,344.5,200.1,391.6,391.6c11,44.6,14.6,76.8,14.6,130.3c0,43.1-2.4,71.7-8.6,103.5
		c-16,81.2-48.9,154.6-98.9,221c-73.9,97.8-180.8,168.4-298.8,197.5c-32.2,7.9-55.8,11.6-86.7,13.4
		C560,1073.2,510.3,1073.1,489.5,1071.8z M644,830c11.5-1,24.6-2.4,50-5.5c22.1-2.6,42.8-6.9,58-12.2c26.4-9.1,52.9-30.4,70.1-56.3
		c14.2-21.3,21.2-39.7,25.4-66.5c2-13.1,1.6-42.6-0.8-56.5c-5.6-32.7-22.3-61.9-46.1-80.4c-17-13.2-39.9-24.2-64.7-31
		c-10-2.8-10.1-5.6-0.4-9.1c17-6.1,36.4-18.3,48.6-30.4c17.8-17.9,29-39.4,34.5-66.4c4.5-22.1,2.6-53.6-4.4-73.8
		c-13.2-37.7-40.5-67.2-77.3-83.4c-14.3-6.3-27.9-10.1-48.4-13.7l-13-2.2l-185.2-0.3L305,241.9v294.5c0,195.3,0.3,294.5,1,294.8
		C308.6,832,633.6,830.9,644,830z"/>
	<path class="st2" d="M488.2,705.7c-1.7-2-1.8-117.3-0.1-119.4c1.1-1.2,9.5-1.4,62.3-1l61.1,0.4l9.5,2.5
		c12.8,3.4,21.3,7.4,28.8,13.8c7.3,6.2,12.6,13.9,16.1,23c2.1,5.6,2.4,8.3,2.5,19c0.1,9.7-0.3,13.7-1.8,18
		c-3.3,9.6-7.4,16.7-13.5,23.2c-9.6,10.3-19.2,15.1-37.6,19c-9.4,2.1-13.3,2.2-68.1,2.5C498.8,707.1,489.2,706.9,488.2,705.7z"/>
	<path class="st2" d="M488.8,472.1c-1.8-1.5-1.9-3.5-1.9-56.1c0.1-50.9,0.2-54.6,1.8-55.8c1.5-1.1,11.4-1.3,50.8-0.9
		c41.2,0.3,50.3,0.6,57.5,2.1c22.2,4.5,35.9,14.3,43.1,31.2c3.3,7.8,3.3,8.1,3.4,22.9c0,13.1-0.3,15.8-2.3,21.3
		c-4.6,12.8-13.4,23-24.5,28.5c-14.7,7.2-31.7,8.8-87.6,8.5C496,473.7,490.5,473.4,488.8,472.1z"/>
</g>
</svg>
